# Blender 4.0.2
# www.blender.org
o Cube.001
v 2.500000 0.000000 -2.200000
v 2.500000 1.000000 -2.200000
v 2.500000 0.000000 -2.500000
v 2.500000 1.000000 -2.500000
v 2.200000 1.000000 -2.500000
v 2.200000 0.000000 -2.200000
v 2.200000 0.000000 -2.500000
v 2.200000 1.000000 -2.200000
v 2.500000 1.000000 -1.200000
v 2.500000 0.000000 -1.200000
v 2.200000 0.000000 -1.200000
v 2.200000 1.000000 -1.200000
v -2.500000 0.000000 -2.200000
v -2.500000 1.000000 -2.200000
v -2.500000 0.000000 -2.500000
v -2.500000 1.000000 -2.500000
v -2.200000 1.000000 -2.500000
v -2.200000 0.000000 -2.200000
v -2.200000 0.000000 -2.500000
v -2.200000 1.000000 -2.200000
v -2.500000 1.000000 -1.200000
v -2.500000 0.000000 -1.200000
v -2.200000 0.000000 -1.200000
v -2.200000 1.000000 -1.200000
v 2.500000 0.000000 2.200000
v 2.500000 1.000000 2.200000
v 2.500000 0.000000 2.500000
v 2.500000 1.000000 2.500000
v 2.200000 1.000000 2.500000
v 2.200000 0.000000 2.200000
v 2.200000 0.000000 2.500000
v 2.200000 1.000000 2.200000
v 2.500000 1.000000 1.200000
v 2.500000 0.000000 1.200000
v 2.200000 0.000000 1.200000
v 2.200000 1.000000 1.200000
v -2.500000 0.000000 2.200000
v -2.500000 1.000000 2.200000
v -2.500000 0.000000 2.500000
v -2.500000 1.000000 2.500000
v -2.200000 1.000000 2.500000
v -2.200000 0.000000 2.200000
v -2.200000 0.000000 2.500000
v -2.200000 1.000000 2.200000
v -2.500000 1.000000 1.200000
v -2.500000 0.000000 1.200000
v -2.200000 0.000000 1.200000
v -2.200000 1.000000 1.200000
vn -0.0000 -0.0000 -1.0000
vn 1.0000 -0.0000 -0.0000
vn -0.0000 -1.0000 -0.0000
vn -0.0000 1.0000 -0.0000
vn -0.0000 -0.0000 1.0000
vn -1.0000 -0.0000 -0.0000
vt -2.240663 2.543287
vt -2.240663 1.720520
vt -2.487494 1.720520
vt -2.487494 2.543287
vt 0.739326 -2.162461
vt 0.739326 -2.409292
vt 0.492495 -2.409292
vt 0.492495 -2.162461
vt 0.492496 1.457714
vt 0.739326 1.457714
vt 0.955034 2.973230
vt 0.955033 -0.646945
vt 0.132266 -0.646945
vt 0.132266 2.973230
vt 0.132266 2.150463
vt 0.955033 2.150463
vt 1.819433 -2.409292
vt 1.819433 -2.162462
vt 1.572603 -2.162461
vt 1.572603 -2.409292
vt 1.787742 -0.652410
vt 1.787742 2.967764
vt 0.964975 2.967765
vt 0.964975 -0.652410
vt -2.496520 1.457714
vt -2.496520 -2.162461
vt -2.249690 -2.162461
vt -2.249690 1.457714
vt -1.982062 -2.129249
vt -1.982062 -1.306481
vt -2.228892 -1.306481
vt -2.228892 -2.129249
vt 0.749836 -2.162461
vt 0.749836 -2.409292
vt -0.330271 -2.409292
vt -0.330271 -2.162461
vt 1.787742 2.144998
vt 0.964975 2.144998
vt 1.379512 2.543286
vt 1.626342 2.543286
vt 1.626342 1.720519
vt 1.379511 1.720519
vt -1.156945 -0.232408
vt -0.910115 -0.232408
vt -0.910115 -1.055175
vt -1.156946 -1.055175
vt 0.492496 1.704544
vt 0.739326 1.704544
vt -1.820661 1.642682
vt -1.820662 0.819915
vt -2.643429 0.819915
vt -2.643429 1.642682
vt 1.819433 1.704544
vt 1.572603 1.704544
vt 1.572603 1.457714
vt 1.819433 1.457714
vt -1.963391 -2.129249
vt -1.716561 -2.129249
vt -1.716561 -1.306481
vt -1.963391 -1.306481
vt 0.749836 1.704544
vt 0.749836 1.457714
vt -0.330271 1.457714
vt -0.330271 1.704544
vt -0.963817 1.061280
vt -0.963817 1.884047
vt -1.786584 1.884047
vt -1.786584 1.061280
vt 1.841443 -2.156427
vt 1.841443 -2.403257
vt 2.664210 -2.403257
vt 2.664210 -2.156427
vt -1.151480 -1.077185
vt -1.151480 -1.324015
vt -0.328713 -1.324015
vt -0.328713 -1.077185
vt -1.416413 -2.162461
vt -1.169582 -2.162461
vt -1.169583 -2.409292
vt -1.416413 -2.409292
vt -1.416413 1.457714
vt -1.169582 1.457714
vt 2.664210 1.463748
vt 1.841443 1.463748
vt -1.151480 -2.146782
vt -0.328713 -2.146782
vt -2.496520 -2.409292
vt -2.249690 -2.409292
vt 2.674151 1.227848
vt 3.496919 1.227848
vt 3.496919 -2.392326
vt 2.674151 -2.392326
vt -1.451060 -2.129249
vt -1.697890 -2.129249
vt -1.697890 -1.306481
vt -1.451060 -1.306481
vt -1.426923 -2.409292
vt -1.426923 -2.162461
vt -0.346816 -2.162461
vt -0.346816 -2.409292
vt 1.636283 2.555355
vt 2.459050 2.555355
vt 2.459050 1.732588
vt 1.636283 1.732588
vt 2.664210 1.710578
vt 1.841443 1.710578
vt -1.416413 1.704544
vt -1.169582 1.704544
vt 2.664210 0.640981
vt 1.841443 0.640981
vt -2.496520 1.704544
vt -2.249690 1.704544
vt -2.228892 -1.284472
vt -2.228892 -0.461705
vt -1.982062 -0.461705
vt -1.982062 -1.284472
vt -1.426923 1.457714
vt -1.426923 1.704544
vt -0.346815 1.704544
vt -0.346815 1.457714
vt 2.674151 0.405082
vt 3.496919 0.405082
s 0
f 7/1/1 5/2/1 4/3/1 3/4/1
f 3/4/2 4/3/2 2/2/2 1/1/2
f 7/5/3 3/6/3 1/7/3 6/8/3
f 6/8/3 18/9/3 19/10/3 7/5/3
f 7/11/1 19/12/1 17/13/1 5/14/1
f 1/11/2 2/14/2 9/15/2 10/16/2
f 4/17/4 5/18/4 8/19/4 2/20/4
f 18/21/5 6/22/5 8/23/5 20/24/5
f 41/25/4 29/26/4 32/27/4 44/28/4
f 10/29/5 9/30/5 12/31/5 11/32/5
f 2/20/4 8/19/4 12/33/4 9/34/4
f 6/8/3 1/7/3 10/35/3 11/36/3
f 8/23/6 6/22/6 11/37/6 12/38/6
f 19/39/1 15/40/1 16/41/1 17/42/1
f 15/43/6 13/44/6 14/45/6 16/46/6
f 19/10/3 18/9/3 13/47/3 15/48/3
f 13/49/6 22/50/6 21/51/6 14/52/6
f 16/53/4 14/54/4 20/55/4 17/56/4
f 22/57/5 23/58/5 24/59/5 21/60/5
f 14/54/4 21/61/4 24/62/4 20/55/4
f 18/9/3 23/63/3 22/64/3 13/47/3
f 20/65/2 24/66/2 23/67/2 18/68/2
f 31/69/5 27/70/5 28/71/5 29/72/5
f 27/73/2 25/74/2 26/75/2 28/76/2
f 31/77/3 30/78/3 25/79/3 27/80/3
f 31/77/3 43/81/3 42/82/3 30/78/3
f 29/72/5 41/83/5 43/84/5 31/69/5
f 25/74/2 34/85/2 33/86/2 26/75/2
f 28/87/4 26/88/4 32/27/4 29/26/4
f 42/89/1 44/90/1 32/91/1 30/92/1
f 34/93/1 35/94/1 36/95/1 33/96/1
f 26/88/4 33/97/4 36/98/4 32/27/4
f 30/78/3 35/99/3 34/100/3 25/79/3
f 32/101/6 36/102/6 35/103/6 30/104/6
f 43/84/5 41/83/5 40/105/5 39/106/5
f 39/106/6 40/105/6 38/83/6 37/84/6
f 43/81/3 39/107/3 37/108/3 42/82/3
f 37/84/6 38/83/6 45/109/6 46/110/6
f 40/111/4 41/25/4 44/28/4 38/112/4
f 46/113/1 45/114/1 48/115/1 47/116/1
f 38/112/4 44/28/4 48/117/4 45/118/4
f 42/82/3 37/108/3 46/119/3 47/120/3
f 44/90/2 42/89/2 47/121/2 48/122/2
f 17/56/4 20/55/4 8/19/4 5/18/4
o Cube.002
v 2.100000 0.000000 -2.100000
v 2.100000 1.100000 -2.100000
v 2.100000 0.000000 -2.600000
v 2.100000 1.100000 -2.600000
v 2.600000 0.000000 -2.100000
v 2.600000 1.100000 -2.100000
v 2.600000 0.000000 -2.600000
v 2.600000 1.100000 -2.600000
v -2.100000 0.000000 -2.100000
v -2.100000 1.100000 -2.100000
v -2.100000 0.000000 -2.600000
v -2.100000 1.100000 -2.600000
v -2.600000 0.000000 -2.100000
v -2.600000 1.100000 -2.100000
v -2.600000 0.000000 -2.600000
v -2.600000 1.100000 -2.600000
v 2.100000 0.000000 2.100000
v 2.100000 1.100000 2.100000
v 2.100000 0.000000 2.600000
v 2.100000 1.100000 2.600000
v 2.600000 0.000000 2.100000
v 2.600000 1.100000 2.100000
v 2.600000 0.000000 2.600000
v 2.600000 1.100000 2.600000
v -2.100000 0.000000 2.100000
v -2.100000 1.100000 2.100000
v -2.100000 0.000000 2.600000
v -2.100000 1.100000 2.600000
v -2.600000 0.000000 2.100000
v -2.600000 1.100000 2.100000
v -2.600000 0.000000 2.600000
v -2.600000 1.100000 2.600000
vn -1.0000 -0.0000 -0.0000
vn -0.0000 -0.0000 -1.0000
vn 1.0000 -0.0000 -0.0000
vn -0.0000 -0.0000 1.0000
vn -0.0000 -1.0000 -0.0000
vn -0.0000 1.0000 -0.0000
vt -1.731064 -1.626677
vt -1.731064 -0.231528
vt -1.096906 -0.231528
vt -1.096906 -1.626677
vt -1.093069 -1.626677
vt -1.093069 -0.231528
vt -0.458911 -0.231528
vt -0.458911 -1.626677
vt -1.096906 1.171293
vt -1.096906 2.566442
vt -1.731064 2.566442
vt -1.731064 1.171293
vt -1.096906 -1.626677
vt -1.096906 -0.231528
vt 2.731064 -0.992518
vt 2.731064 -1.626677
vt 2.096906 -1.626677
vt 2.096906 -0.992518
vt 2.731064 -0.988683
vt 2.731064 -0.354524
vt 2.096905 -0.354524
vt 2.096905 -0.988683
vt -0.455074 1.171293
vt 0.179084 1.171293
vt 0.179084 2.566442
vt -0.455074 2.566442
vt 0.179085 -1.626677
vt -0.455074 -1.626677
vt -0.455074 -0.231528
vt 0.179085 -0.231528
vt -0.458911 1.171293
vt -1.093069 1.171293
vt -1.093069 2.566442
vt -0.458911 2.566442
vt 0.182921 -1.626677
vt 0.817079 -1.626677
vt 0.817079 -0.231528
vt 0.182921 -0.231528
vt 2.093069 1.171293
vt 1.458911 1.171293
vt 1.458911 1.805452
vt 2.093069 1.805452
vt 0.817079 2.443447
vt 0.182921 2.443447
vt 0.182921 1.809289
vt 0.817079 1.809288
vt 1.455075 -1.626677
vt 0.820916 -1.626677
vt 0.820916 -0.231528
vt 1.455075 -0.231528
vt -1.731064 -0.227692
vt -1.096906 -0.227692
vt -1.096906 1.167457
vt -1.731064 1.167457
vt 0.820916 -0.227692
vt 1.455075 -0.227692
vt 1.455075 1.167457
vt 0.820916 1.167457
vt -0.458911 -0.227692
vt -1.093069 -0.227692
vt -1.093069 1.167457
vt -0.458911 1.167457
vt 0.820916 2.443447
vt 1.455074 2.443447
vt 1.455074 1.809288
vt 0.820916 1.809288
vt 1.458911 1.809288
vt 2.093069 1.809288
vt 2.093069 2.443447
vt 1.458911 2.443447
vt 2.093070 -1.626677
vt 2.093070 -0.231528
vt 1.458911 -0.231528
vt 1.458911 -1.626677
vt 0.179085 -0.227692
vt 0.179085 1.167457
vt -0.455074 1.167457
vt -0.455074 -0.227692
vt 1.458911 -0.227692
vt 1.458911 1.167457
vt 2.093070 1.167457
vt 2.093070 -0.227692
vt 0.182921 -0.227692
vt 0.182921 1.167457
vt 0.817079 1.167457
vt 0.817079 -0.227692
vt 0.182921 1.171293
vt 0.182921 1.805451
vt 0.817079 1.805451
vt 0.817079 1.171293
vt 0.820916 1.805451
vt 0.820916 1.171293
vt 1.455074 1.171293
vt 1.455074 1.805451
s 0
f 49/123/7 50/124/7 52/125/7 51/126/7
f 51/127/8 52/128/8 56/129/8 55/130/8
f 55/131/9 56/132/9 54/133/9 53/134/9
f 53/135/10 54/136/10 50/124/10 49/123/10
f 51/137/11 55/138/11 53/139/11 49/140/11
f 56/141/12 52/142/12 50/143/12 54/144/12
f 57/145/9 59/146/9 60/147/9 58/148/9
f 59/149/8 63/150/8 64/151/8 60/152/8
f 63/153/7 61/154/7 62/155/7 64/156/7
f 61/157/10 57/158/10 58/159/10 62/160/10
f 59/161/11 57/162/11 61/163/11 63/164/11
f 64/165/12 62/166/12 58/167/12 60/168/12
f 65/169/7 67/170/7 68/171/7 66/172/7
f 67/173/10 71/174/10 72/175/10 68/176/10
f 71/177/9 69/178/9 70/179/9 72/180/9
f 69/181/8 65/182/8 66/183/8 70/184/8
f 67/185/11 65/186/11 69/187/11 71/188/11
f 72/189/12 70/190/12 66/191/12 68/192/12
f 73/193/9 74/194/9 76/195/9 75/196/9
f 75/197/10 76/198/10 80/199/10 79/200/10
f 79/201/7 80/202/7 78/203/7 77/204/7
f 77/205/8 78/206/8 74/207/8 73/208/8
f 75/209/11 79/210/11 77/211/11 73/212/11
f 80/213/12 76/214/12 74/215/12 78/216/12
o Plane.001
v -2.704334 0.000000 -2.704334
v 2.704334 0.000000 -2.704334
v -2.704334 -0.300000 -2.704334
v 2.704334 -0.300000 -2.704334
v -2.704334 0.000000 2.704334
v 2.704334 0.000000 2.704334
v -2.704334 -0.300000 2.704334
v 2.704334 -0.300000 2.704334
vn -0.0000 -0.0000 -1.0000
vn -1.0000 -0.0000 -0.0000
vn -0.0000 -1.0000 -0.0000
vn 1.0000 -0.0000 -0.0000
vn -0.0000 -0.0000 1.0000
vn -0.0000 1.0000 -0.0000
vt 1.777225 -2.499259
vt 1.610908 -2.499259
vt 1.610908 0.499259
vt 1.777225 0.499259
vt 1.945025 0.499259
vt 1.945024 -2.499259
vt 1.778707 -2.499259
vt 1.778707 0.499259
vt -1.389092 -2.499259
vt -1.389092 0.499259
vt 1.609426 0.499259
vt 1.609426 -2.499259
vt 1.609426 0.500741
vt 1.609426 3.499259
vt -1.389092 3.499259
vt -1.389092 0.500741
s 0
f 82/217/13 84/218/13 83/219/13 81/220/13
f 85/221/14 81/222/14 83/223/14 87/224/14
f 87/225/15 83/226/15 84/227/15 88/228/15
f 88/219/16 84/218/16 82/217/16 86/220/16
f 86/222/17 85/221/17 87/224/17 88/223/17
f 86/229/18 82/230/18 81/231/18 85/232/18
