# Blender 4.0.2
# www.blender.org
o Cylinder
v 0.250000 0.251497 -4.335454
v 0.250000 0.251496 4.335453
v 0.467802 0.125749 -4.335454
v 0.467802 0.125748 4.335453
v 0.467802 -0.125748 -4.335454
v 0.467802 -0.125748 4.335453
v 0.250000 -0.251496 -4.335454
v 0.250000 -0.251497 4.335453
v 0.032198 -0.125748 -4.335454
v 0.032198 -0.125748 4.335453
v 0.032198 0.125749 -4.335454
v 0.032198 0.125748 4.335453
vn 0.5000 0.8660 -0.0000
vn 1.0000 -0.0000 -0.0000
vn 0.5000 -0.8660 -0.0000
vn -0.5000 -0.8660 -0.0000
vn -0.0000 -0.0000 1.0000
vn -1.0000 -0.0000 -0.0000
vn -0.5000 0.8660 -0.0000
vn -0.0000 -0.0000 -1.0000
vt -0.817006 -2.499177
vt -0.817006 3.499177
vt -0.525702 3.499177
vt -0.525702 -2.499177
vt -0.277271 -2.499177
vt -0.277271 3.499177
vt -0.524055 3.499177
vt -0.524055 -2.499177
vt 0.206345 -2.499177
vt 0.206345 3.499177
vt -0.029168 3.499177
vt -0.029168 -2.499177
vt -0.030814 -2.499177
vt -0.030814 3.499177
vt -0.275625 3.499177
vt -0.275625 -2.499177
vt 0.895612 -2.499177
vt 1.144138 -2.355690
vt 1.144138 -2.068717
vt 0.895612 -1.925231
vt 0.647086 -2.068717
vt 0.647086 -2.355690
vt 0.207991 -2.499177
vt 0.207991 3.499177
vt 0.426879 3.499177
vt 0.426879 -2.499177
vt 0.428525 -2.499177
vt 0.428525 3.499177
vt 0.645440 3.499177
vt 0.645440 -2.499177
vt 1.085947 -1.543520
vt 1.085947 -1.796897
vt 0.866517 -1.923585
vt 0.647086 -1.796897
vt 0.647086 -1.543521
vt 0.866517 -1.416832
s 0
f 1/1/1 2/2/1 4/3/1 3/4/1
f 3/5/2 4/6/2 6/7/2 5/8/2
f 5/9/3 6/10/3 8/11/3 7/12/3
f 7/13/4 8/14/4 10/15/4 9/16/4
f 4/17/5 2/18/5 12/19/5 10/20/5 8/21/5 6/22/5
f 9/23/6 10/24/6 12/25/6 11/26/6
f 11/27/7 12/28/7 2/29/7 1/30/7
f 1/31/8 3/32/8 5/33/8 7/34/8 9/35/8 11/36/8
