# Blender 4.0.2
# www.blender.org
o Plane
v 0.000000 0.000000 6.000000
v 6.000000 0.000000 6.000000
v 6.000000 -0.000000 0.000000
v 6.000000 0.000000 -0.000000
v 0.000000 -0.000000 -6.000000
v 6.000000 -0.000000 -6.000000
v -6.000000 0.000000 -0.000000
v -6.000000 -0.000000 -6.000000
v 0.000000 -0.000000 -6.000000
v -6.000000 0.000000 6.000000
v 0.000000 0.000000 6.000000
v -6.000000 -0.000000 0.000000
v -3.000000 0.000000 3.000000
v 3.000000 0.000000 3.000000
v -3.000000 -0.000000 -3.000000
v 3.000000 -0.000000 -3.000000
v 0.000000 -0.000000 -3.000000
v 0.000000 0.000000 3.000000
v -3.000000 0.000000 0.000000
v 3.000000 0.000000 0.000000
vn -0.0000 1.0000 -0.0000
vt 0.984375 -1.859375
vt -2.015625 -1.859375
vt -0.515625 -0.359375
vt 0.984375 -0.359375
vt -2.015625 1.140625
vt -0.515625 1.140625
vt 2.484375 -0.359375
vt 3.984375 -1.859375
vt 3.984375 1.140625
vt 2.484375 1.140625
vt 2.484375 2.640625
vt 3.984375 4.140625
vt 0.984375 2.640625
vt 0.984375 4.140625
vt -2.015625 4.140625
vt -0.515625 2.640625
s 0
f 9/1/1 8/2/1 15/3/1 17/4/1
f 15/3/1 8/2/1 12/5/1 19/6/1
f 17/4/1 16/7/1 6/8/1 9/1/1
f 4/9/1 6/8/1 16/7/1 20/10/1
f 20/10/1 14/11/1 2/12/1 4/9/1
f 14/11/1 18/13/1 11/14/1 2/12/1
f 10/15/1 11/14/1 18/13/1 13/16/1
f 12/5/1 10/15/1 13/16/1 19/6/1
l 1 2
l 2 3
l 5 6
l 7 8
