# Blender 4.0.2
# www.blender.org
o Cube
v -3.500000 0.000000 0.500000
v -3.500000 6.000000 0.500000
v -3.500000 0.000000 -0.500000
v -3.500000 6.000000 -0.500000
v -2.500000 0.000000 0.500000
v -2.500000 6.000000 0.500000
v -2.500000 0.000000 -0.500000
v -2.500000 6.000000 -0.500000
v -2.894895 3.327232 0.249996
v -1.053937 5.445013 0.249994
v -2.894895 3.327232 -0.250004
v -1.053937 5.445012 -0.250005
v -2.517540 2.999202 0.249996
v -0.676582 5.116983 0.249994
v -2.517541 2.999202 -0.250004
v -0.676583 5.116983 -0.250005
v 3.500000 0.000000 0.500000
v 3.500000 6.000000 0.500000
v 3.500000 0.000000 -0.500000
v 3.500000 6.000000 -0.500000
v 2.500000 0.000000 0.500000
v 2.500000 6.000000 0.500000
v 2.500000 0.000000 -0.500000
v 2.500000 6.000000 -0.500000
v 2.894895 3.327232 0.249996
v 1.053937 5.445013 0.249994
v 2.894895 3.327232 -0.250004
v 1.053937 5.445012 -0.250005
v 2.517540 2.999202 0.249996
v 0.676582 5.116983 0.249994
v 2.517541 2.999202 -0.250004
v 0.676583 5.116983 -0.250005
v -4.024749 4.900000 0.300000
v -4.024749 5.500000 0.300000
v -4.024749 4.900000 -0.300000
v -4.024749 5.500000 -0.300000
v 4.024749 4.900000 0.300000
v 4.024749 5.500000 0.300000
v 4.024749 4.900000 -0.300000
v 4.024749 5.500000 -0.300000
vn -1.0000 -0.0000 -0.0000
vn -0.0000 -0.0000 -1.0000
vn 1.0000 -0.0000 -0.0000
vn -0.0000 -0.0000 1.0000
vn -0.0000 1.0000 -0.0000
vn -0.7547 0.6561 -0.0000
vn 0.7547 -0.6561 -0.0000
vn 0.7547 0.6561 -0.0000
vn -0.7547 -0.6561 -0.0000
vn -0.0000 -1.0000 -0.0000
vt 1.197465 -2.098816
vt 1.197465 1.330716
vt 1.769053 1.330716
vt 1.769053 -2.098816
vt -1.107383 -2.098816
vt -1.107383 1.330716
vt -0.535794 1.330716
vt -0.535794 -2.098816
vt 2.345265 -2.098816
vt 2.345265 1.330716
vt 1.773676 1.330716
vt 1.773676 -2.098816
vt 0.040418 -2.098816
vt 0.040418 1.330716
vt -0.531171 1.330716
vt -0.531171 -2.098816
vt 2.068720 1.335340
vt 2.068720 1.906928
vt 1.497131 1.906928
vt 1.497131 1.335340
vt 0.916295 1.335339
vt 0.916296 2.545839
vt 1.202090 2.545839
vt 1.202089 1.335339
vt -0.245377 1.335339
vt -0.245377 2.939266
vt 0.040417 2.939267
vt 0.040418 1.335339
vt 0.621252 1.335339
vt 0.621253 2.545839
vt 0.335459 2.545839
vt 0.335458 1.335339
vt -0.531172 1.335340
vt -0.531172 2.939268
vt -0.816966 2.939268
vt -0.816966 1.335340
vt 2.219671 -2.098816
vt 2.791260 -2.098816
vt 2.791260 1.330716
vt 2.219671 1.330716
vt 0.616630 -2.098816
vt 0.045041 -2.098816
vt 0.045041 1.330716
vt 0.616630 1.330716
vt 3.497688 -2.098816
vt 2.926100 -2.098816
vt 2.926100 1.330716
vt 3.497688 1.330716
vt 0.621253 -2.098816
vt 1.192842 -2.098816
vt 1.192842 1.330716
vt 0.621253 1.330716
vt 2.068720 2.483140
vt 1.497131 2.483140
vt 1.497131 1.911551
vt 2.068720 1.911551
vt 1.206713 1.335339
vt 1.492507 1.335339
vt 1.492508 2.545839
vt 1.206714 2.545839
vt -0.821589 1.335340
vt -1.107383 1.335339
vt -1.107383 2.939267
vt -0.821589 2.939267
vt 0.911671 1.335339
vt 0.625876 1.335339
vt 0.625877 2.545839
vt 0.911671 2.545839
vt 0.045041 1.335340
vt 0.330835 1.335340
vt 0.330835 2.939268
vt 0.045041 2.939267
vt 2.073343 1.335339
vt 2.073343 1.678292
vt 2.416296 1.678292
vt 2.416296 1.335339
vt -1.802535 2.502187
vt -1.459582 2.502187
vt -1.459583 -2.098816
vt -1.802536 -2.098816
vt 2.416296 1.911551
vt 2.416296 2.254504
vt 2.073343 2.254504
vt 2.073343 1.911551
vt -1.454959 -2.098816
vt -1.112006 -2.098816
vt -1.112006 2.502187
vt -1.454959 2.502187
vt -2.154735 2.502187
vt -2.154735 -2.098816
vt -2.497688 -2.098816
vt -2.497688 2.502187
vt -1.807159 -2.098816
vt -1.807158 2.502187
vt -2.150112 2.502187
vt -2.150112 -2.098816
s 0
f 1/1/1 2/2/1 4/3/1 3/4/1
f 3/5/2 4/6/2 8/7/2 7/8/2
f 7/9/3 8/10/3 6/11/3 5/12/3
f 5/13/4 6/14/4 2/15/4 1/16/4
f 8/17/5 4/18/5 2/19/5 6/20/5
f 9/21/6 10/22/6 12/23/6 11/24/6
f 11/25/2 12/26/2 16/27/2 15/28/2
f 15/29/7 16/30/7 14/31/7 13/32/7
f 13/33/4 14/34/4 10/35/4 9/36/4
f 17/37/3 19/38/3 20/39/3 18/40/3
f 19/41/2 23/42/2 24/43/2 20/44/2
f 23/45/1 21/46/1 22/47/1 24/48/1
f 21/49/4 17/50/4 18/51/4 22/52/4
f 24/53/5 22/54/5 18/55/5 20/56/5
f 25/57/8 27/58/8 28/59/8 26/60/8
f 27/61/2 31/62/2 32/63/2 28/64/2
f 31/65/9 29/66/9 30/67/9 32/68/9
f 29/69/4 25/70/4 26/71/4 30/72/4
f 33/73/1 34/74/1 36/75/1 35/76/1
f 35/77/2 36/78/2 40/79/2 39/80/2
f 39/81/3 40/82/3 38/83/3 37/84/3
f 37/85/4 38/86/4 34/87/4 33/88/4
f 35/89/10 39/90/10 37/91/10 33/92/10
f 40/93/5 36/94/5 34/95/5 38/96/5
o Cube.004
v 3.000000 5.451497 0.595970
v 3.000000 5.451497 -0.595969
v 3.217802 5.325749 0.595970
v 3.217802 5.325749 -0.595969
v 3.217802 5.074252 0.595970
v 3.217802 5.074252 -0.595969
v 3.000000 4.948504 0.595970
v 3.000000 4.948504 -0.595969
v 2.782198 5.074252 0.595970
v 2.782198 5.074252 -0.595969
v 2.782198 5.325749 0.595970
v 2.782198 5.325749 -0.595969
v -3.000000 5.451497 0.595970
v -3.000000 5.451497 -0.595969
v -3.217802 5.325749 0.595970
v -3.217802 5.325749 -0.595969
v -3.217802 5.074252 0.595970
v -3.217802 5.074252 -0.595969
v -3.000000 4.948504 0.595970
v -3.000000 4.948504 -0.595969
v -2.782198 5.074252 0.595970
v -2.782198 5.074252 -0.595969
v -2.782198 5.325749 0.595970
v -2.782198 5.325749 -0.595969
vn 0.5000 0.8660 -0.0000
vn 1.0000 -0.0000 -0.0000
vn 0.5000 -0.8660 -0.0000
vn -0.5000 -0.8660 -0.0000
vn -0.0000 -0.0000 -1.0000
vn -1.0000 -0.0000 -0.0000
vn -0.5000 0.8660 -0.0000
vn -0.0000 -0.0000 1.0000
vt -0.015409 -0.134446
vt 0.103661 -0.134446
vt 0.103661 0.517171
vt -0.015409 0.517171
vt 0.722194 0.517171
vt 0.584704 0.517171
vt 0.584704 -0.134446
vt 0.722194 -0.134446
vt 0.343430 -0.134446
vt 0.224360 -0.134446
vt 0.224360 0.517171
vt 0.343430 0.517171
vt 0.105291 -0.134446
vt 0.105291 0.517171
vt 0.759260 0.725261
vt 0.759260 0.587771
vt 0.640190 0.519026
vt 0.521121 0.587771
vt 0.521121 0.725261
vt 0.640190 0.794005
vt 0.726017 0.518329
vt 0.863507 0.518329
vt 0.863507 -0.133288
vt 0.726017 -0.133288
vt -0.134478 -0.134446
vt -0.134478 0.517171
vt 0.839418 0.958484
vt 0.720349 0.889740
vt 0.720349 0.752249
vt 0.839418 0.683505
vt 0.958488 0.752249
vt 0.958488 0.889740
vt 0.464129 -0.134446
vt 0.464129 0.517171
vt 0.345059 0.517171
vt 0.345059 -0.134446
vt 0.518333 0.760762
vt -0.133284 0.760762
vt -0.133284 0.898252
vt 0.518333 0.898252
vt -0.134442 0.758098
vt 0.517175 0.758098
vt 0.517175 0.639028
vt -0.134442 0.639028
vt 0.517175 0.519959
vt -0.134442 0.519959
vt 0.690515 1.083581
vt 0.759260 0.964511
vt 0.690515 0.845442
vt 0.553025 0.845442
vt 0.484281 0.964511
vt 0.553025 1.083581
vt 0.867330 0.518329
vt 0.867330 -0.133288
vt 1.004820 -0.133288
vt 1.004820 0.518329
vt 0.583198 -0.134446
vt 0.583198 0.517171
vt 1.015481 0.859566
vt 1.134550 0.928311
vt 1.134550 1.065801
vt 1.015481 1.134546
vt 0.896411 1.065801
vt 0.896411 0.928311
s 0
f 41/97/11 43/98/11 44/99/11 42/100/11
f 43/101/12 45/102/12 46/103/12 44/104/12
f 45/105/13 47/106/13 48/107/13 46/108/13
f 47/106/14 49/109/14 50/110/14 48/107/14
f 44/111/15 46/112/15 48/113/15 50/114/15 52/115/15 42/116/15
f 49/117/16 51/118/16 52/119/16 50/120/16
f 51/121/17 41/97/17 42/100/17 52/122/17
f 41/123/18 51/124/18 49/125/18 47/126/18 45/127/18 43/128/18
f 53/129/17 54/130/17 56/131/17 55/132/17
f 55/133/16 56/134/16 58/135/16 57/136/16
f 57/137/14 58/138/14 60/139/14 59/140/14
f 59/140/13 60/139/13 62/141/13 61/142/13
f 56/143/15 54/144/15 64/145/15 62/146/15 60/147/15 58/148/15
f 61/149/12 62/150/12 64/151/12 63/152/12
f 63/153/11 64/154/11 54/130/11 53/129/11
f 53/155/18 55/156/18 57/157/18 59/158/18 61/159/18 63/160/18
o Cube.003
v 2.400000 1.043561 -0.600000
v 2.400000 1.396439 -0.600000
v 2.400000 1.043561 0.600000
v 2.400000 1.396439 0.600000
v 3.600000 1.043561 -0.600000
v 3.600000 1.396439 -0.600000
v 3.600000 1.043561 0.600000
v 3.600000 1.396439 0.600000
v -2.400000 1.043561 -0.600000
v -2.400000 1.396439 -0.600000
v -2.400000 1.043561 0.600000
v -2.400000 1.396439 0.600000
v -3.600000 1.043561 -0.600000
v -3.600000 1.396439 -0.600000
v -3.600000 1.043561 0.600000
v -3.600000 1.396439 0.600000
vn -1.0000 -0.0000 -0.0000
vn -0.0000 -0.0000 1.0000
vn 1.0000 -0.0000 -0.0000
vn -0.0000 -0.0000 -1.0000
vn -0.0000 -1.0000 -0.0000
vn -0.0000 1.0000 -0.0000
vt 0.670551 0.187358
vt 0.187358 0.670551
vt 0.329449 0.812642
vt 0.812642 0.329449
vt 1.395341 -0.537431
vt 1.878534 -1.020624
vt 2.020624 -0.878534
vt 1.537431 -0.395341
vt 1.224790 -0.707983
vt 1.707983 -0.224790
vt 2.191176 -0.707983
vt 1.707983 -1.191176
vt -0.537431 1.395341
vt -0.395341 1.537431
vt -0.878534 2.020624
vt -1.020624 1.878534
vt -0.707983 1.224790
vt -1.191176 1.707983
vt -0.707983 2.191176
vt -0.224790 1.707983
s 0
f 65/161/19 67/162/19 68/163/19 66/164/19
f 67/165/20 71/166/20 72/167/20 68/168/20
f 71/162/21 69/161/21 70/164/21 72/163/21
f 69/166/22 65/165/22 66/168/22 70/167/22
f 67/169/23 65/170/23 69/171/23 71/172/23
f 72/172/24 70/171/24 66/170/24 68/169/24
f 73/161/21 74/164/21 76/163/21 75/162/21
f 75/173/20 76/174/20 80/175/20 79/176/20
f 79/162/19 80/163/19 78/164/19 77/161/19
f 77/176/22 78/175/22 74/174/22 73/173/22
f 75/177/23 79/178/23 77/179/23 73/180/23
f 80/178/24 76/177/24 74/180/24 78/179/24
