# Blender 4.0.2
# www.blender.org
mtllib sword.mtl
o Sword
v 0.005182 0.285904 -0.044027
v 0.005182 0.553823 -0.037566
v 0.011960 0.290122 -0.000000
v 0.011960 0.553823 -0.000000
v 0.000000 0.553823 -0.036226
v 0.009986 0.553823 -0.000000
v 0.000000 1.205303 -0.036226
v 0.009986 1.205303 -0.000000
v 0.000000 1.252473 -0.000000
v 0.000000 0.553823 -0.041383
v 0.000000 0.285904 -0.044027
v 0.000000 0.282453 -0.150760
v 0.000000 0.264189 -0.150760
v 0.015329 0.331646 -0.000000
v 0.021795 0.265026 -0.000000
v 0.006365 0.264189 -0.150760
v 0.006365 0.282453 -0.150760
v 0.015973 0.264782 -0.043929
v 0.009205 0.287532 -0.043929
v 0.000000 0.287682 -0.153619
v 0.000000 0.258961 -0.153619
v 0.009814 0.258961 -0.153619
v 0.009814 0.287682 -0.153619
v 0.000000 0.281282 -0.176489
v 0.000000 0.265361 -0.176489
v 0.006360 0.265361 -0.176489
v 0.006360 0.281282 -0.176489
v 0.000000 0.287532 -0.043929
v 0.000000 0.331646 -0.000000
v 0.000000 0.265026 -0.000000
v 0.000000 0.264782 -0.043929
v 0.000000 0.073179 -0.016839
v 0.000000 0.267631 -0.016839
v 0.014388 0.073179 -0.008803
v 0.014388 0.267631 -0.008803
v 0.016789 0.267631 -0.000000
v 0.014388 0.073179 -0.000000
v 0.000000 0.267631 -0.000000
v 0.000000 0.066032 -0.011579
v 0.010087 0.066032 -0.007459
v 0.010087 0.066032 -0.000000
v 0.000000 0.018004 -0.020927
v 0.000000 0.046306 -0.020927
v 0.017267 0.046306 -0.012069
v 0.017267 0.046306 -0.000000
v 0.000000 0.001137 -0.007783
v 0.017267 0.018004 -0.012069
v 0.017267 0.018004 -0.000000
v 0.008513 0.001137 -0.008194
v 0.008513 0.001137 -0.000000
v 0.000000 0.001137 -0.000000
v -0.005182 0.285904 -0.044027
v -0.005182 0.553823 -0.037566
v -0.011960 0.290122 -0.000000
v -0.011960 0.553823 -0.000000
v -0.009986 0.553823 -0.000000
v -0.009986 1.205303 -0.000000
v -0.015329 0.331646 -0.000000
v -0.021795 0.265026 -0.000000
v -0.006365 0.264189 -0.150760
v -0.006365 0.282453 -0.150760
v -0.015973 0.264782 -0.043929
v -0.009205 0.287532 -0.043929
v -0.009814 0.258961 -0.153619
v -0.009814 0.287682 -0.153619
v -0.006360 0.265361 -0.176489
v -0.006360 0.281282 -0.176489
v -0.014388 0.073179 -0.008803
v -0.014388 0.267631 -0.008803
v -0.016789 0.267631 -0.000000
v -0.014388 0.073179 -0.000000
v -0.010087 0.066032 -0.007459
v -0.010087 0.066032 -0.000000
v -0.017267 0.046306 -0.012069
v -0.017267 0.046306 -0.000000
v -0.017267 0.018004 -0.012069
v -0.017267 0.018004 -0.000000
v -0.008513 0.001137 -0.008194
v -0.008513 0.001137 -0.000000
v 0.005182 0.285904 0.044027
v 0.005182 0.553823 0.037566
v 0.000000 0.553823 0.036226
v 0.000000 1.205303 0.036226
v 0.000000 0.553823 0.041383
v 0.000000 0.285904 0.044027
v 0.000000 0.282453 0.150760
v 0.000000 0.264189 0.150760
v 0.006365 0.264189 0.150760
v 0.006365 0.282453 0.150760
v 0.015973 0.264782 0.043929
v 0.009205 0.287532 0.043929
v 0.000000 0.287682 0.153619
v 0.000000 0.258961 0.153619
v 0.009814 0.258961 0.153619
v 0.009814 0.287682 0.153619
v 0.000000 0.281282 0.176489
v 0.000000 0.265361 0.176489
v 0.006360 0.265361 0.176489
v 0.006360 0.281282 0.176489
v 0.000000 0.287532 0.043929
v 0.000000 0.264782 0.043929
v 0.000000 0.073179 0.016839
v 0.000000 0.267631 0.016839
v 0.014388 0.073179 0.008803
v 0.014388 0.267631 0.008803
v 0.000000 0.066032 0.011579
v 0.010087 0.066032 0.007459
v 0.000000 0.018004 0.020927
v 0.000000 0.046306 0.020927
v 0.017267 0.046306 0.012069
v 0.000000 0.001137 0.007783
v 0.017267 0.018004 0.012069
v 0.008513 0.001137 0.008194
v -0.005182 0.285904 0.044027
v -0.005182 0.553823 0.037566
v -0.006365 0.264189 0.150760
v -0.006365 0.282453 0.150760
v -0.015973 0.264782 0.043929
v -0.009205 0.287532 0.043929
v -0.009814 0.258961 0.153619
v -0.009814 0.287682 0.153619
v -0.006360 0.265361 0.176489
v -0.006360 0.281282 0.176489
v -0.014388 0.073179 0.008803
v -0.014388 0.267631 0.008803
v -0.010087 0.066032 0.007459
v -0.017267 0.046306 0.012069
v -0.017267 0.018004 0.012069
v -0.008513 0.001137 0.008194
vn 0.9865 0.0020 -0.1640
vn -0.0000 1.0000 -0.0000
vn 0.9446 0.2000 -0.2604
vn 0.9640 -0.0000 -0.2657
vn 0.3456 0.0159 -0.9383
vn 0.6381 -0.0000 0.7699
vn 0.9684 0.1434 -0.2041
vn 0.9848 0.1625 -0.0617
vn -0.0000 0.9630 -0.2695
vn -0.0000 -0.4797 0.8774
vn -0.0000 0.4797 0.8774
vn -0.0000 -0.0000 -1.0000
vn 0.9888 -0.0000 -0.1493
vn -0.0000 -0.9630 -0.2695
vn -0.0000 0.9989 -0.0475
vn -0.0000 0.7056 -0.7086
vn -0.0000 -1.0000 0.0056
vn -0.0000 -1.0000 0.0055
vn 0.4876 -0.0000 -0.8731
vn 0.9908 -0.0061 -0.1351
vn 0.8569 -0.5156 -0.0000
vn 0.9397 0.3420 -0.0000
vn 0.3902 -0.4803 -0.7856
vn 0.4564 -0.0000 -0.8898
vn 0.3983 0.3695 -0.8395
vn 0.2716 -0.4888 -0.8290
vn 1.0000 -0.0000 -0.0000
vn -0.0000 -1.0000 -0.0000
vn 0.8876 -0.4607 -0.0000
vn -0.9865 0.0020 -0.1640
vn -0.9446 0.2000 -0.2604
vn -0.9640 -0.0000 -0.2657
vn -0.3456 0.0159 -0.9383
vn -0.6381 -0.0000 0.7699
vn -0.9684 0.1434 -0.2041
vn -0.9848 0.1625 -0.0617
vn -0.9888 -0.0000 -0.1493
vn -0.4876 -0.0000 -0.8731
vn -0.9908 -0.0061 -0.1351
vn -0.8569 -0.5156 -0.0000
vn -0.9397 0.3420 -0.0000
vn -0.3902 -0.4803 -0.7856
vn -0.4564 -0.0000 -0.8898
vn -0.3983 0.3695 -0.8395
vn -0.2716 -0.4888 -0.8290
vn -1.0000 -0.0000 -0.0000
vn -0.8876 -0.4607 -0.0000
vn 0.9865 0.0020 0.1640
vn 0.9446 0.2000 0.2604
vn 0.9640 -0.0000 0.2657
vn 0.3456 0.0159 0.9383
vn 0.6381 -0.0000 -0.7699
vn 0.9684 0.1434 0.2041
vn 0.9848 0.1625 0.0617
vn -0.0000 0.9630 0.2695
vn -0.0000 -0.4797 -0.8774
vn -0.0000 0.4797 -0.8774
vn -0.0000 -0.0000 1.0000
vn 0.9888 -0.0000 0.1493
vn -0.0000 -0.9630 0.2695
vn -0.0000 0.9989 0.0475
vn -0.0000 0.7056 0.7086
vn -0.0000 -1.0000 -0.0056
vn -0.0000 -1.0000 -0.0055
vn 0.4876 -0.0000 0.8731
vn 0.9908 -0.0061 0.1351
vn 0.3902 -0.4803 0.7856
vn 0.4564 -0.0000 0.8898
vn 0.3983 0.3695 0.8395
vn 0.2716 -0.4888 0.8290
vn -0.9865 0.0020 0.1640
vn -0.9446 0.2000 0.2604
vn -0.9640 -0.0000 0.2657
vn -0.3456 0.0159 0.9383
vn -0.6381 -0.0000 -0.7699
vn -0.9684 0.1434 0.2041
vn -0.9848 0.1625 0.0617
vn -0.9888 -0.0000 0.1493
vn -0.4876 -0.0000 0.8731
vn -0.9908 -0.0061 0.1351
vn -0.3902 -0.4803 0.7856
vn -0.4564 -0.0000 0.8898
vn -0.3983 0.3695 0.8395
vn -0.2716 -0.4888 0.8290
vt 0.562500 0.558594
vt 0.515625 0.558594
vt 0.515625 0.238281
vt 0.570312 0.234375
vt 0.468750 0.496094
vt 0.460938 0.492188
vt 0.472656 0.449219
vt 0.476562 0.449219
vt 0.113281 0.824219
vt 0.070312 0.882812
vt 0.070312 0.824219
vt 0.113281 0.027344
vt 0.070312 0.027344
vt 0.527344 0.218750
vt 0.519531 0.218750
vt 0.519531 0.558594
vt 0.527344 0.558594
vt 0.644531 0.785156
vt 0.644531 0.761719
vt 0.652344 0.753906
vt 0.652344 0.792969
vt 0.546875 0.750000
vt 0.546875 0.777344
vt 0.492188 0.828125
vt 0.492188 0.750000
vt 0.675781 0.746094
vt 0.675781 0.769531
vt 0.335938 0.761719
vt 0.347656 0.761719
vt 0.343750 0.789062
vt 0.335938 0.789062
vt 0.671875 0.757812
vt 0.664062 0.757812
vt 0.664062 0.750000
vt 0.679688 0.750000
vt 0.664062 0.781250
vt 0.671875 0.781250
vt 0.679688 0.789062
vt 0.664062 0.789062
vt 0.675781 0.777344
vt 0.675781 0.761719
vt 0.667969 0.761719
vt 0.667969 0.777344
vt 0.656250 0.792969
vt 0.656250 0.757812
vt 0.683594 0.765625
vt 0.683594 0.785156
vt 0.679688 0.761719
vt 0.667969 0.789062
vt 0.675781 0.789062
vt 0.550781 0.773438
vt 0.550781 0.761719
vt 0.679688 0.765625
vt 0.679688 0.773438
vt 0.511719 0.753906
vt 0.476562 0.804688
vt 0.484375 0.812500
vt 0.527344 0.765625
vt 0.460938 0.500000
vt 0.542969 0.746094
vt 0.492188 0.738281
vt 0.492188 0.765625
vt 0.542969 0.765625
vt 0.671875 0.765625
vt 0.539062 0.261719
vt 0.539062 0.511719
vt 0.554688 0.511719
vt 0.554688 0.261719
vt 0.566406 0.265625
vt 0.566406 0.503906
vt 0.554688 0.503906
vt 0.554688 0.265625
vt 0.332031 0.863281
vt 0.332031 0.843750
vt 0.351562 0.843750
vt 0.347656 0.855469
vt 0.531250 0.519531
vt 0.519531 0.519531
vt 0.519531 0.511719
vt 0.527344 0.511719
vt 0.054688 0.199219
vt 0.046875 0.199219
vt 0.046875 0.175781
vt 0.062500 0.175781
vt 0.554688 0.523438
vt 0.570312 0.523438
vt 0.566406 0.515625
vt 0.554688 0.515625
vt 0.097656 0.171875
vt 0.117188 0.171875
vt 0.117188 0.136719
vt 0.097656 0.136719
vt 0.097656 0.199219
vt 0.109375 0.199219
vt 0.109375 0.113281
vt 0.097656 0.113281
vt 0.046875 0.140625
vt 0.062500 0.140625
vt 0.039062 0.113281
vt 0.039062 0.121094
vt 0.046875 0.125000
vt 0.046875 0.113281
vt 0.046875 0.121094
vt 0.058594 0.121094
vt 0.558594 0.558594
vt 0.566406 0.234375
vt 0.457031 0.496094
vt 0.449219 0.449219
vt 0.023438 0.824219
vt 0.023438 0.027344
vt 0.515625 0.218750
vt 0.656250 0.781250
vt 0.652344 0.789062
vt 0.652344 0.750000
vt 0.546875 0.746094
vt 0.492188 0.746094
vt 0.546875 0.773438
vt 0.675781 0.765625
vt 0.328125 0.789062
vt 0.324219 0.761719
vt 0.660156 0.777344
vt 0.660156 0.761719
vt 0.296875 0.792969
vt 0.324219 0.785156
vt 0.324219 0.765625
vt 0.296875 0.757812
vt 0.656250 0.761719
vt 0.660156 0.789062
vt 0.679688 0.781250
vt 0.550781 0.785156
vt 0.542969 0.781250
vt 0.496094 0.824219
vt 0.542969 0.785156
vt 0.492188 0.792969
vt 0.671875 0.773438
vt 0.554688 0.257812
vt 0.535156 0.257812
vt 0.535156 0.507812
vt 0.554688 0.507812
vt 0.574219 0.289062
vt 0.562500 0.289062
vt 0.562500 0.527344
vt 0.574219 0.527344
vt 0.312500 0.855469
vt 0.312500 0.843750
vt 0.582031 0.523438
vt 0.582031 0.515625
vt 0.570312 0.515625
vt 0.062500 0.199219
vt 0.066406 0.175781
vt 0.050781 0.175781
vt 0.050781 0.199219
vt 0.539062 0.515625
vt 0.535156 0.523438
vt 0.074219 0.136719
vt 0.074219 0.171875
vt 0.082031 0.199219
vt 0.085938 0.113281
vt 0.066406 0.140625
vt 0.050781 0.140625
vt 0.027344 0.113281
vt 0.027344 0.125000
vt 0.062500 0.121094
vt 0.050781 0.121094
vt 0.468750 0.558594
vt 0.460938 0.234375
vt 0.468750 0.406250
vt 0.460938 0.406250
vt 0.027344 0.824219
vt 0.027344 0.027344
vt 0.523438 0.218750
vt 0.523438 0.558594
vt 0.347656 0.792969
vt 0.347656 0.757812
vt 0.343750 0.761719
vt 0.437500 0.750000
vt 0.437500 0.777344
vt 0.308594 0.746094
vt 0.308594 0.769531
vt 0.671875 0.785156
vt 0.679688 0.757812
vt 0.328125 0.757812
vt 0.332031 0.753906
vt 0.316406 0.753906
vt 0.316406 0.757812
vt 0.316406 0.785156
vt 0.316406 0.789062
vt 0.332031 0.789062
vt 0.328125 0.785156
vt 0.671875 0.761719
vt 0.332031 0.792969
vt 0.300781 0.785156
vt 0.300781 0.765625
vt 0.332031 0.757812
vt 0.343750 0.785156
vt 0.339844 0.757812
vt 0.332031 0.785156
vt 0.437500 0.769531
vt 0.308594 0.761719
vt 0.437500 0.757812
vt 0.453125 0.765625
vt 0.492188 0.812500
vt 0.484375 0.820312
vt 0.460938 0.398438
vt 0.437500 0.746094
vt 0.437500 0.765625
vt 0.308594 0.765625
vt 0.308594 0.757812
vt 0.546875 0.273438
vt 0.566406 0.273438
vt 0.566406 0.523438
vt 0.546875 0.523438
vt 0.542969 0.265625
vt 0.542969 0.503906
vt 0.332031 0.824219
vt 0.347656 0.832031
vt 0.507812 0.519531
vt 0.511719 0.511719
vt 0.039062 0.199219
vt 0.031250 0.175781
vt 0.546875 0.511719
vt 0.558594 0.511719
vt 0.093750 0.175781
vt 0.093750 0.136719
vt 0.117188 0.175781
vt 0.093750 0.199219
vt 0.105469 0.199219
vt 0.093750 0.117188
vt 0.105469 0.117188
vt 0.031250 0.140625
vt 0.046875 0.105469
vt 0.039062 0.105469
vt 0.035156 0.121094
vt 0.457031 0.406250
vt 0.511719 0.218750
vt 0.511719 0.558594
vt 0.308594 0.785156
vt 0.304688 0.753906
vt 0.304688 0.789062
vt 0.437500 0.773438
vt 0.660156 0.785156
vt 0.667969 0.781250
vt 0.332031 0.750000
vt 0.304688 0.757812
vt 0.304688 0.777344
vt 0.320312 0.785156
vt 0.324219 0.757812
vt 0.437500 0.781250
vt 0.308594 0.777344
vt 0.468750 0.750000
vt 0.503906 0.800781
vt 0.437500 0.785156
vt 0.308594 0.773438
vt 0.546875 0.269531
vt 0.546875 0.519531
vt 0.527344 0.519531
vt 0.527344 0.269531
vt 0.554688 0.289062
vt 0.554688 0.527344
vt 0.312500 0.832031
vt 0.562500 0.523438
vt 0.562500 0.515625
vt 0.042969 0.199219
vt 0.035156 0.175781
vt 0.527344 0.523438
vt 0.535156 0.511719
vt 0.070312 0.175781
vt 0.070312 0.136719
vt 0.082031 0.117188
vt 0.035156 0.140625
vt 0.027344 0.105469
vt 0.042969 0.121094
s 0
f 2/1/1 4/2/1 3/3/1 1/4/1
f 2/5/2 5/6/2 6/7/2 4/8/2
f 7/9/3 9/10/3 8/11/3
f 5/12/4 7/9/4 8/11/4 6/13/4
f 1/14/5 11/15/5 10/16/5 2/17/5
f 17/18/6 16/19/6 22/20/6 23/21/6
f 18/22/7 19/23/7 14/24/7 15/25/7
f 16/26/8 17/27/8 19/23/8 18/22/8
f 20/28/9 23/29/9 27/30/9 24/31/9
f 16/32/10 13/33/10 21/34/10 22/35/10
f 12/36/11 17/37/11 23/38/11 20/39/11
f 27/40/12 26/41/12 25/42/12 24/43/12
f 23/44/13 22/45/13 26/46/13 27/47/13
f 22/48/14 21/42/14 25/49/14 26/50/14
f 28/51/15 19/52/15 17/53/15 12/54/15
f 14/55/16 19/56/16 28/57/16 29/58/16
f 5/6/2 2/5/2 10/59/2
f 18/60/17 15/61/17 30/62/17 31/63/17
f 13/64/18 16/32/18 18/60/18 31/63/18
f 32/65/19 33/66/19 35/67/19 34/68/19
f 34/69/20 35/70/20 36/71/20 37/72/20
f 33/73/2 38/74/2 36/75/2 35/76/2
f 34/77/21 37/78/21 41/79/21 40/80/21
f 40/81/22 41/82/22 45/83/22 44/84/22
f 32/85/23 34/86/23 40/87/23 39/88/23
f 43/89/24 44/90/24 47/91/24 42/92/24
f 39/93/25 40/94/25 44/90/25 43/89/25
f 42/92/26 47/91/26 49/95/26 46/96/26
f 44/84/27 45/83/27 48/97/27 47/98/27
f 51/99/28 46/100/28 49/101/28 50/102/28
f 47/98/29 48/97/29 50/103/29 49/104/29
f 53/105/30 52/106/30 54/3/30 55/2/30
f 53/107/2 55/108/2 56/108/2 5/6/2
f 7/109/31 57/11/31 9/10/31
f 5/110/32 56/13/32 57/11/32 7/109/32
f 52/111/33 53/2/33 10/16/33 11/15/33
f 61/112/34 65/113/34 64/114/34 60/45/34
f 62/115/35 59/116/35 58/24/35 63/117/35
f 60/26/36 62/115/36 63/117/36 61/118/36
f 20/28/9 24/31/9 67/119/9 65/120/9
f 60/45/10 64/114/10 21/34/10 13/33/10
f 12/36/11 20/39/11 65/113/11 61/112/11
f 67/121/12 24/43/12 25/42/12 66/122/12
f 65/123/37 67/124/37 66/125/37 64/126/37
f 64/127/14 66/128/14 25/49/14 21/42/14
f 28/51/15 12/54/15 61/129/15 63/130/15
f 58/131/16 29/58/16 28/57/16 63/132/16
f 5/6/2 10/59/2 53/107/2
f 62/133/17 31/63/17 30/62/17 59/134/17
f 13/64/18 31/63/18 62/133/18 60/135/18
f 32/136/38 68/137/38 69/138/38 33/139/38
f 68/140/39 71/141/39 70/142/39 69/143/39
f 33/73/2 69/144/2 70/145/2 38/74/2
f 68/146/40 72/147/40 73/148/40 71/86/40
f 72/149/41 74/150/41 75/151/41 73/152/41
f 32/85/42 39/88/42 72/153/42 68/154/42
f 43/89/43 42/92/43 76/155/43 74/156/43
f 39/93/44 43/89/44 74/156/44 72/157/44
f 42/92/45 46/96/45 78/158/45 76/155/45
f 74/150/46 76/159/46 77/160/46 75/151/46
f 51/99/28 79/161/28 78/162/28 46/100/28
f 76/159/47 78/163/47 79/164/47 77/160/47
f 81/165/48 80/166/48 3/3/48 4/2/48
f 81/167/2 4/8/2 6/7/2 82/168/2
f 83/169/49 8/11/49 9/10/49
f 82/170/50 6/13/50 8/11/50 83/169/50
f 80/171/51 81/172/51 84/2/51 85/111/51
f 89/30/52 95/173/52 94/174/52 88/175/52
f 90/176/53 15/25/53 14/24/53 91/177/53
f 88/178/54 90/176/54 91/177/54 89/179/54
f 92/180/55 96/32/55 99/181/55 95/47/55
f 88/182/56 94/183/56 93/184/56 87/185/56
f 86/186/57 92/187/57 95/188/57 89/189/57
f 99/129/58 96/37/58 97/190/58 98/48/58
f 95/191/59 99/192/59 98/193/59 94/194/59
f 94/195/60 98/196/60 97/194/60 93/197/60
f 100/198/61 86/179/61 89/199/61 91/200/61
f 14/177/62 29/201/62 100/202/62 91/203/62
f 82/168/2 84/204/2 81/167/2
f 90/205/63 101/206/63 30/62/63 15/61/63
f 87/207/64 101/206/64 90/205/64 88/208/64
f 102/209/65 104/210/65 105/211/65 103/212/65
f 104/213/66 37/72/66 36/71/66 105/214/66
f 103/215/2 105/216/2 36/75/2 38/74/2
f 104/217/21 107/218/21 41/79/21 37/78/21
f 107/219/22 110/220/22 45/83/22 41/82/22
f 102/212/67 106/221/67 107/222/67 104/211/67
f 109/223/68 108/224/68 112/91/68 110/225/68
f 106/226/69 109/223/69 110/225/69 107/227/69
f 108/224/70 111/228/70 113/229/70 112/91/70
f 110/220/27 112/230/27 48/97/27 45/83/27
f 51/99/28 50/102/28 113/231/28 111/232/28
f 112/230/29 113/233/29 50/103/29 48/97/29
f 115/165/71 55/2/71 54/3/71 114/166/71
f 115/234/2 82/168/2 56/108/2 55/108/2
f 83/9/72 9/10/72 57/11/72
f 82/12/73 83/9/73 57/11/73 56/13/73
f 114/235/74 85/111/74 84/2/74 115/236/74
f 117/237/75 116/208/75 120/238/75 121/239/75
f 118/205/76 119/240/76 58/24/76 59/116/76
f 116/178/77 117/207/77 119/240/77 118/205/77
f 92/180/55 121/241/55 123/33/55 96/32/55
f 116/208/56 87/185/56 93/184/56 120/238/56
f 86/186/57 117/237/57 121/239/57 92/187/57
f 123/242/58 122/42/58 97/190/58 96/37/58
f 121/197/78 120/243/78 122/244/78 123/245/78
f 120/246/60 93/197/60 97/194/60 122/247/60
f 100/198/61 119/248/61 117/249/61 86/179/61
f 58/250/62 119/251/62 100/202/62 29/201/62
f 82/168/2 115/234/2 84/204/2
f 118/252/63 59/134/63 30/62/63 101/206/63
f 87/207/64 116/253/64 118/252/64 101/206/64
f 102/254/79 103/255/79 125/256/79 124/257/79
f 124/258/80 125/259/80 70/142/80 71/141/80
f 103/215/2 38/74/2 70/145/2 125/260/2
f 124/261/40 71/86/40 73/148/40 126/262/40
f 126/263/41 73/152/41 75/151/41 127/264/41
f 102/212/81 124/265/81 126/266/81 106/221/81
f 109/223/82 127/267/82 128/268/82 108/224/82
f 106/226/83 126/157/83 127/267/83 109/223/83
f 108/224/84 128/268/84 129/269/84 111/228/84
f 127/264/46 75/151/46 77/160/46 128/270/46
f 51/99/28 111/232/28 129/271/28 79/161/28
f 128/270/47 77/160/47 79/164/47 129/272/47
